<?xml version="1.0" standalone="no"?>
<!DOCTYPE svg PUBLIC "-//W3C//DTD SVG 20010904//EN"
 "http://www.w3.org/TR/2001/REC-SVG-20010904/DTD/svg10.dtd">
<svg version="1.0" xmlns="http://www.w3.org/2000/svg"
 width="292.000000pt" height="292.000000pt" viewBox="0 0 292.000000 292.000000"
 preserveAspectRatio="xMidYMid meet">
<metadata>
Created by potrace 1.14, written by Peter Selinger 2001-2017
</metadata>
<g transform="translate(0.000000,292.000000) scale(0.100000,-0.100000)"
fill="#000000" stroke="none">
<path d="M768 2433 l-3 -96 -95 -1 -95 -1 0 -95 0 -95 98 -3 97 -3 0 99 0 98
100 0 100 0 2 -195 3 -194 92 -1 c54 -1 94 3 96 9 2 6 3 49 2 98 l0 87 97 0
98 0 1 28 c1 28 1 139 0 157 -1 7 -69 10 -192 10 -105 0 -193 3 -196 8 -2 4
-4 48 -4 97 l0 90 -99 0 -99 0 -3 -97z"/>
<path d="M1759 2528 c-1 -2 -2 -41 -3 -88 -1 -47 -4 -89 -8 -95 -3 -5 -47 -10
-97 -10 -50 0 -91 -2 -92 -5 -1 -9 -1 -135 0 -163 l1 -28 98 3 97 3 0 87 c0
47 4 90 8 95 5 4 48 8 95 8 l87 0 5 70 c3 39 3 82 1 98 l-3 27 -94 0 c-52 0
-95 -1 -95 -2z"/>
<path d="M1950 2143 c0 -147 3 -193 13 -194 14 -1 156 -1 175 0 9 1 12 27 12
96 l0 95 98 0 98 0 0 98 0 98 -198 0 -198 0 0 -193z"/>
<path d="M1330 1752 l-166 -2 1 -95 c0 -56 4 -95 10 -96 6 0 182 -1 393 -1
l382 -1 0 -583 0 -584 100 0 100 0 0 680 0 680 -82 0 c-46 0 -193 2 -328 3
-135 1 -319 1 -410 -1z"/>
<path d="M770 1655 c0 -56 4 -95 10 -96 6 0 44 -1 85 -1 41 0 81 1 88 1 10 1
14 25 15 96 l2 95 -100 0 -100 0 0 -95z"/>
<path d="M770 878 l0 -488 99 0 99 0 1 485 c1 454 0 485 -17 486 -9 0 -54 2
-100 2 l-82 2 0 -487z"/>
<path d="M1171 1360 c-4 -3 -6 -222 -6 -487 l0 -483 295 0 295 0 0 479 c0 264
-3 483 -8 487 -8 8 -565 12 -576 4z m386 -288 l-2 -97 -95 0 -95 0 -2 96 -2
97 99 0 99 0 -2 -96z m1 -393 l2 -95 -97 0 -98 1 -2 96 -1 97 96 -2 97 -1 3
-96z"/>
</g>
</svg>
